<?xml version="1.0" encoding="UTF-8"?>
<svg width="100" height="100" viewBox="0 0 100 100" xmlns="http://www.w3.org/2000/svg">
  <!-- Definitions for gradients, patterns, and filters -->
  <defs>
    <!-- Main background gradient -->
    <linearGradient id="bgGradient" x1="0%" y1="0%" x2="100%" y2="100%">
      <stop offset="0%" stop-color="#1e293b" />
      <stop offset="100%" stop-color="#0f172a" />
    </linearGradient>
    
    <!-- Accent gradient -->
    <linearGradient id="accentGradient" x1="0%" y1="0%" x2="100%" y2="100%">
      <stop offset="0%" stop-color="#4f46e5" />
      <stop offset="100%" stop-color="#4338ca" />
    </linearGradient>
    
    <!-- Highlight gradient -->
    <linearGradient id="highlightGradient" x1="0%" y1="0%" x2="100%" y2="100%">
      <stop offset="0%" stop-color="#ffffff" stop-opacity="0.2" />
      <stop offset="100%" stop-color="#ffffff" stop-opacity="0" />
    </linearGradient>
    
    <!-- Subtle dot pattern -->
    <pattern id="dotPattern" x="0" y="0" width="10" height="10" patternUnits="userSpaceOnUse">
      <circle cx="5" cy="5" r="1" fill="#ffffff" fill-opacity="0.05" />
    </pattern>
    
    <!-- Circular clip path -->
    <clipPath id="circleClip">
      <circle cx="50" cy="50" r="48" />
    </clipPath>
    
    <!-- Drop shadow filter -->
    <filter id="dropShadow" x="-20%" y="-20%" width="140%" height="140%">
      <feGaussianBlur in="SourceAlpha" stdDeviation="3" />
      <feOffset dx="0" dy="2" result="offsetblur" />
      <feComponentTransfer>
        <feFuncA type="linear" slope="0.3" />
      </feComponentTransfer>
      <feMerge>
        <feMergeNode />
        <feMergeNode in="SourceGraphic" />
      </feMerge>
    </filter>
    
    <!-- Inner shadow filter -->
    <filter id="innerShadow" x="-20%" y="-20%" width="140%" height="140%">
      <feGaussianBlur in="SourceAlpha" stdDeviation="2" />
      <feOffset dx="0" dy="1" />
      <feComposite in2="SourceAlpha" operator="arithmetic" k2="-1" k3="1" />
      <feColorMatrix type="matrix" values="0 0 0 0 0   0 0 0 0 0   0 0 0 0 0   0 0 0 0.3 0" />
      <feBlend in="SourceGraphic" mode="normal" />
    </filter>
  </defs>
  
  <!-- Main background circle with shadow -->
  <circle cx="50" cy="50" r="48" fill="url(#bgGradient)" filter="url(#dropShadow)" />
  
  <!-- Pattern overlay for texture -->
  <circle cx="50" cy="50" r="48" fill="url(#dotPattern)" />
  
  <!-- User silhouette with professional styling -->
  <g fill="#ffffff" clip-path="url(#circleClip)">
    <!-- Head with subtle gradient -->
    <circle cx="50" cy="38" r="15" fill="url(#highlightGradient)" />
    
    <!-- Body with professional shape -->
    <path d="M50,55 C33,55 20,74 20,95 L80,95 C80,74 67,55 50,55 Z" />
    
    <!-- Subtle shoulder details -->
    <path d="M35,60 C38,57 43,55 50,55 C57,55 62,57 65,60" fill="none" stroke="#ffffff" stroke-width="1" stroke-opacity="0.3" />
  </g>
  
  <!-- Accent ring with gradient -->
  <circle cx="50" cy="50" r="48" fill="none" stroke="url(#accentGradient)" stroke-width="3" />
  
  <!-- Highlight effects -->
  <path d="M30,30 Q50,10 70,30" fill="none" stroke="#ffffff" stroke-width="1.5" stroke-opacity="0.3" />
  
  <!-- Subtle glow effect -->
  <circle cx="50" cy="50" r="46" fill="none" stroke="#4f46e5" stroke-width="1" stroke-opacity="0.3" filter="url(#innerShadow)" />
  
  <!-- Additional decorative elements -->
  <g opacity="0.5">
    <circle cx="25" cy="25" r="2" fill="#ffffff" />
    <circle cx="75" cy="25" r="1" fill="#ffffff" />
    <circle cx="85" cy="50" r="1.5" fill="#ffffff" />
    <circle cx="15" cy="50" r="1.5" fill="#ffffff" />
    <circle cx="25" cy="75" r="1" fill="#ffffff" />
    <circle cx="75" cy="75" r="2" fill="#ffffff" />
  </g>
</svg>
